<svg id="Group_4560" data-name="Group 4560" xmlns="http://www.w3.org/2000/svg" width="14.777" height="18.454" viewBox="0 0 14.777 18.454">
  <path id="Path_3024" data-name="Path 3024" d="M838.358,2631.1a2.349,2.349,0,1,0,2.35,2.349A2.352,2.352,0,0,0,838.358,2631.1Z" transform="translate(-830.97 -2626.589)" fill="#ff9c00"/>
  <path id="Path_3025" data-name="Path 3025" d="M834.025,2622.368a7.261,7.261,0,0,0-7.389,7.125c0,3.354,5.372,9.424,6.955,11.14a.6.6,0,0,0,.868,0c1.583-1.716,6.955-7.786,6.955-11.14A7.26,7.26,0,0,0,834.025,2622.368Zm0,10.305a3.525,3.525,0,1,1,3.653-3.522A3.594,3.594,0,0,1,834.025,2632.674Z" transform="translate(-826.636 -2622.368)" fill="#ff9c00"/>
</svg>
