<svg xmlns="http://www.w3.org/2000/svg" width="13.187" height="20.801" viewBox="0 0 13.187 20.801">
  <g id="Group_4559" data-name="Group 4559" transform="translate(0 0)">
    <path id="Path_3020" data-name="Path 3020" d="M610.851,156.821c-.348.553-.87.553-1.626,0-.523,1.327-2.9,5.751-2.9,5.751s1.546.628,3.753-.92a20.022,20.022,0,0,0,5.966-8.243,20.331,20.331,0,0,0,1.213-7.657c-.058-2.489-1.117-3.2-2.221-3.529l-1.974,6.247s1.379.452.8,2.221A14.388,14.388,0,0,1,610.851,156.821Z" transform="translate(-604.066 -141.897)" fill="#ff9c00"/>
    <path id="Path_3021" data-name="Path 3021" d="M619.555,141.288A2.076,2.076,0,0,0,617,142.394c-.871,1.714-1.51,4.368.581,5.2C618.161,145.988,619.555,141.288,619.555,141.288Z" transform="translate(-609.459 -141.183)" fill="#ff9c00"/>
    <path id="Path_3022" data-name="Path 3022" d="M639.111,186.8l-3.022,5.669s-1.742-1.273-1.045-2.543,1.507-2.864,1.507-2.864S637.372,185.811,639.111,186.8Z" transform="translate(-634.88 -172.232)" fill="#ff9c00"/>
  </g>
</svg>
