<svg xmlns="http://www.w3.org/2000/svg" width="27.322" height="23.018" viewBox="0 0 27.322 23.018">
  <path id="Path_8783" data-name="Path 8783" d="M23.151,14.7Q23.076,17,23,19.3l-2.828-2.82L18.09,14.7c-3.263.084-10.086.9-11.163-1.336C5.7,11.035,6.478,1.371,8.118.6c3.21-1.014,17.365-.729,19.5.593.888,2.829.914,9.4.149,12.465C26.564,14.568,25.489,14.758,23.151,14.7ZM5.885,4.015c-.249,12.523-.233,11.819,12.2,11.575l2.679,2.671v.148H10.946l-4.763,4.6v-4.6c-2.1.075-3.341-.117-4.465-.89C.738,14.786.662,6.7,2.016,4.46A11.144,11.144,0,0,1,5.885,4.015Zm6.549,2.671a2.725,2.725,0,0,0-.6.594c-.537.831,0,1.486,1.191,1.484l.6-.594-.149-.742-.3-.594Zm4.912,0-.744.594.3,1.335h1.339l.149-.445c.248-.663,0-.873-.3-1.336Zm4.912,0a1.669,1.669,0,0,0-.744,1.484l.744.594c.976-.12,1.009-.31,1.339-1.039l-.149-.445L23,6.983Z" transform="translate(-0.99 0.009)" fill="#ff9c00" fill-rule="evenodd"/>
</svg>
