<svg xmlns="http://www.w3.org/2000/svg" width="22.636" height="22.638" viewBox="0 0 22.636 22.638">
  <path id="Path_8785" data-name="Path 8785" d="M21.531,12.973h-3.55l-.258,2.192-.968-.58.129-1.611-5.035.064q.032,2.127.065,4.254h.9l.258,1.1H11.848v4c.976-.065,1.424-.639,2.066-1.031h.064l.452,1.8a13.088,13.088,0,0,1-4.067.387c-4.365-.721-7.1-2.63-8.972-5.8-3.129-5.3-.5-11.9,3.163-14.568A11.414,11.414,0,0,1,21.66,7.751c.959,2.234,1.685,7.454-.194,9.411l-.9-.516A10.683,10.683,0,0,0,21.531,12.973ZM10.816,6.14v-4c-2.01.149-3.1,2.3-3.808,3.8Zm1.033-4v4l3.808-.193V5.882C14.977,4.358,13.851,2.3,11.848,2.143Zm-4.26.58C6.236,3.7,4.768,4.1,3.78,5.431V5.5l2.066.322C6.153,5.144,7.588,2.724,7.588,2.724Zm7.359,0c.526.75,1.384,2.517,1.936,3.094l2-.387-.9-.967C16.931,3.988,16.173,3.126,14.947,2.724ZM1.133,11.877h3.55a23.844,23.844,0,0,1,.775-5.028c-.664-.058-2.167-.582-2.517-.322C1.843,7.581,1.16,9.825,1.133,11.877Zm16.847,0h3.55c.024-2.462-1.095-3.837-1.807-5.479l-2.517.451A29.752,29.752,0,0,1,17.981,11.877Zm-1.1,0a22.125,22.125,0,0,0-.775-4.9l-4.26.322q.032,2.288.065,4.577Zm-11.1,0h5.035q-.032-2.32-.065-4.641l-4.2-.193A27.7,27.7,0,0,0,5.781,11.877Zm-4.648,1.1c.076,1.9.805,4.167,1.872,5.157l2.453-.451a38.393,38.393,0,0,1-.775-4.706Zm4.648,0a23.773,23.773,0,0,0,.775,4.512l4.26-.322v-4.19Zm7.165.838L21.4,18.323l-.065.129-2.711.773-.065.129,2.453,3.094c-.153.474-.782.841-1.162,1.1h-.258c-.542-.857-1.66-2.589-2.582-3.03l-1.42,2.578-.71-2.321C14.464,19.41,12.8,14.947,12.946,13.811Zm-2.13,4.577-3.808.193c.706,1.515,1.8,3.642,3.808,3.8Zm-5.164.322L3.78,19.1l.9.967C5.732,20.539,6.5,21.4,7.717,21.8A30.018,30.018,0,0,0,5.652,18.71Z" transform="translate(-0.001 -0.977)" fill="#ff9c00" fill-rule="evenodd"/>
</svg>
