<svg id="Group_4558" data-name="Group 4558" xmlns="http://www.w3.org/2000/svg" width="18.528" height="13.114" viewBox="0 0 18.528 13.114">
  <path id="Path_3016" data-name="Path 3016" d="M724.868,484.869l8.3,7.977,8.219-7.974a.693.693,0,0,1,.1-.068,2.256,2.256,0,0,0-1.4-.49H726.121a2.256,2.256,0,0,0-1.378.475A.709.709,0,0,1,724.868,484.869Z" transform="translate(-723.845 -484.315)" fill="#ff9c00"/>
  <path id="Path_3017" data-name="Path 3017" d="M771.022,500.19a.8.8,0,0,1,.219.155,2.267,2.267,0,0,0,.166-.845v-8.562a2.278,2.278,0,0,0-.04-.4l-5.047,4.9C768.356,497.572,770.548,499.805,771.022,500.19Z" transform="translate(-752.88 -488.663)" fill="#ff9c00"/>
  <path id="Path_3018" data-name="Path 3018" d="M736.958,510.391l-2.4,2.329a.8.8,0,0,1-1.115,0l-2.469-2.371-5.049,5.007a2.254,2.254,0,0,0,1.021.252h13.977a2.25,2.25,0,0,0,1.015-.25A55.4,55.4,0,0,1,736.958,510.391Z" transform="translate(-724.67 -502.498)" fill="#ff9c00"/>
  <path id="Path_3019" data-name="Path 3019" d="M721.81,490.414a2.254,2.254,0,0,0-.044.436v8.562a2.279,2.279,0,0,0,.165.843l4.98-4.939Z" transform="translate(-721.766 -488.574)" fill="#ff9c00"/>
</svg>
