<svg width="25" height="35" viewBox="0 0 25 35" fill="none" xmlns="http://www.w3.org/2000/svg">
<ellipse cx="12.5" cy="29" rx="12.5" ry="6" fill="url(#paint0_linear_2320_93)" fill-opacity="0.5"/>
<circle cx="12.5" cy="11.5" r="11.5" fill="url(#paint1_linear_2320_93)"/>
<g clip-path="url(#clip0_2320_93)">
<path d="M17.2045 13.3694C18.0667 13.3881 18.77 12.6833 18.7495 11.8212C18.7302 11.0127 18.0785 10.3624 17.27 10.3449L10.2746 10.1933L12.956 7.51187C13.5261 6.94177 13.5261 6.01745 12.956 5.44735C12.3859 4.87725 11.4616 4.87725 10.8915 5.44735L6.73233 9.60654L5 11.3389L11.4399 17.7788C11.9183 18.2571 12.6939 18.2571 13.1722 17.7788C13.6506 17.3004 13.6506 16.5248 13.1722 16.0464L10.3466 13.2208L17.2045 13.3694Z" fill="white"/>
</g>
<defs>
<linearGradient id="paint0_linear_2320_93" x1="13.0435" y1="22.4783" x2="11.4418" y2="36.5779" gradientUnits="userSpaceOnUse">
<stop stop-color="#8E8E8E"/>
<stop offset="0.4" stop-color="#CCCCCC" stop-opacity="0.44"/>
<stop offset="1" stop-color="#FDFDFD" stop-opacity="0"/>
</linearGradient>
<linearGradient id="paint1_linear_2320_93" x1="-0.5" y1="11" x2="25" y2="12" gradientUnits="userSpaceOnUse">
<stop stop-color="#7EFFD8"/>
<stop offset="1" stop-color="#08679D"/>
</linearGradient>
<clipPath id="clip0_2320_93">
<rect width="10.3787" height="11.209" fill="white" transform="translate(5 11.3389) rotate(-45)"/>
</clipPath>
</defs>
</svg>
